<?xml version="1.0" standalone="no"?><!DOCTYPE svg PUBLIC "-//W3C//DTD SVG 1.1//EN" "http://www.w3.org/Graphics/SVG/1.1/DTD/svg11.dtd"><svg t="1621691191792" class="icon" viewBox="0 0 1024 1024" version="1.1" xmlns="http://www.w3.org/2000/svg" p-id="10566" xmlns:xlink="http://www.w3.org/1999/xlink" width="32" height="32"><defs><style type="text/css"></style></defs><path d="M452 12.4C341.2 26 246 73.6 163.6 155.6c-70 70-113.2 150.8-134.4 249.2-9.6 44.4-9.2 152.4 0 194.4 37.2 164 142 292 288.8 353.6 72.8 30.8 106.8 37.2 194 37.2 62-0.4 80-1.6 110.8-9.2C716 958.4 792.4 916 860 848c131.6-131.6 177.2-326.4 118-503.2C922 177.2 778 51.2 604.4 17.6 565.6 10 490 7.6 452 12.4z m343.2 222.4c-88.4 120-112 154.4-110 160.8 1.2 3.6 6.8 17.6 12.8 31.2 20 48 17.6 110-6 160.4-14.4 30.8-56.8 74.8-86.4 90-58 29.6-132.4 29.6-184.8 0.8l-16.8-9.6-99.2 71.2C250.4 778.4 203.6 812 200.4 814c-8.8 5.2-8 4 90.4-132.4l52.4-72.8-12-24c-16-32.4-22.4-74.8-16.4-114.4 11.6-80.8 76.8-150 156-166.8 34.8-6.8 82.4-2.8 113.2 10.4 14.4 5.6 29.2 11.6 32.8 12.8 4.4 1.2 19.6-7.2 41.6-23.2 103.2-75.6 171.2-123.2 172.8-122 0.8 1.2-15.6 24.8-36 53.2z" fill="#4E057E" p-id="10567"></path></svg>