<?xml version="1.0" standalone="no"?><!DOCTYPE svg PUBLIC "-//W3C//DTD SVG 1.1//EN" "http://www.w3.org/Graphics/SVG/1.1/DTD/svg11.dtd"><svg t="1621693139241" class="icon" viewBox="0 0 1024 1024" version="1.1" xmlns="http://www.w3.org/2000/svg" p-id="16451" width="32" height="32" xmlns:xlink="http://www.w3.org/1999/xlink"><defs><style type="text/css"></style></defs><path d="M504.687 313.346c3.75 0 7.575 0.15 11.251 0.375v-0.15l391.083-0.15C835.165 164.609 682.827 62 506.562 62c-127.885 0-243.095 54.079-324.252 140.562l138.161 241.596c26.627-76.132 99.007-130.811 184.215-130.811zM377.101 508.437c0 70.432 57.08 127.585 127.585 127.585s127.585-57.08 127.585-127.585-57.155-127.585-127.585-127.585-127.585 57.155-127.585 127.585zM543.84 699.553c-12.601 2.625-25.727 3.975-39.154 3.975-69.156 0-129.835-36.003-164.489-90.308l-0.375 0.3-202.667-354.329c-47.48 70.731-75.157 155.788-75.157 247.371 0 214.893 152.487 394.158 355.08 435.562l-9.976-6 136.736-236.57z m389.132-318.851l-280.823 0.15c29.627 34.203 47.629 78.832 47.629 127.585 0 37.728-10.726 72.981-29.327 102.833L474.76 949.848c10.501 0.75 21.077 1.275 31.802 1.275 245.496 0 444.562-199.067 444.562-444.562 0-43.728-6.376-85.957-18.151-125.86z" p-id="16452" fill="#4E057E"></path></svg>