<?xml version="1.0" standalone="no"?><!DOCTYPE svg PUBLIC "-//W3C//DTD SVG 1.1//EN" "http://www.w3.org/Graphics/SVG/1.1/DTD/svg11.dtd"><svg t="1621688695898" class="icon" viewBox="0 0 1024 1024" version="1.1" xmlns="http://www.w3.org/2000/svg" p-id="2249" width="32" height="32" xmlns:xlink="http://www.w3.org/1999/xlink"><defs><style type="text/css"></style></defs><path d="M498.4 672.2c18.7 0 35.8 6.7 49 17.8 14.6-71.2 77.7-124.8 153.3-124.8 66.8 0 123.9 41.9 146.3 100.8 64.2 9.7 113.3 65.2 113.3 132.1 0 69.3-52.7 126.2-120.1 133-3.2 0.4-6.4 0.7-9.6 0.7H479.2c-1.3 0-2.5-0.1-3.8-0.2-228.3-4-412.3-190.4-412.3-419.8 0-232 188-420 420-420s419.9 188 419.9 420c0 43.3-6.7 85-19 124.5-3.4-1.2-6.8-2.3-10.2-3.2-25.1-48.8-70.2-85.8-124.5-99.8 0.6-7.1 0.9-14.2 0.9-21.5 0-147.6-119.6-267.3-267.3-267.3-147.6 0-267.2 119.6-267.2 267.3 0 128.1 90.1 235 210.2 261.1-2.7-7.8-4-16-4-24.4 0.1-42.1 34.3-76.3 76.5-76.3z m0 0" p-id="2250" fill="#4E057E"></path></svg>