<?xml version="1.0" standalone="no"?><!DOCTYPE svg PUBLIC "-//W3C//DTD SVG 1.1//EN"
        "http://www.w3.org/Graphics/SVG/1.1/DTD/svg11.dtd">
<svg t="1621691014125" class="icon" viewBox="0 0 1024 1024" version="1.1" xmlns="http://www.w3.org/2000/svg" p-id="3217"
     xmlns:xlink="http://www.w3.org/1999/xlink" width="32" height="32">
    <defs>
        <style type="text/css"></style>
    </defs>
    <path d="M322.383448 0c27.012414 7.768276 55.684414 11.970207 80.754759 23.834483 136.615724 64.617931 173.02069 214.192552 84.532965 340.391724-31.179034 44.491034-74.151724 75.281655-118.85462 104.306759-33.332966 21.609931-67.442759 42.443034-98.763035 66.736551-67.972414 52.824276-106.566621 122.138483-106.390069 209.637517 0.176552 109.744552 63.664552 200.915862 164.440276 239.651311 4.484414 1.730207 7.768276 6.603034 11.581793 9.992827h-31.179034c-25.352828-4.660966-51.094069-8.050759-76.129104-14.230069-103.38869-25.6-173.868138-89.864828-211.685517-188.310069-11.546483-30.013793-13.947586-63.558621-20.585931-95.443862v-20.833103c0.953379-6.779586 2.224552-13.523862 2.824828-20.303448 4.13131-42.478345 13.170759-84.391724 36.864-119.702069 30.366897-45.303172 65.677241-87.357793 98.586482-131.03669 18.679172-24.823172 39.406345-48.622345 54.589793-75.493517 28.70731-50.846897 21.645241-108.049655-14.124137-144.454621-35.169103-35.84-91.030069-42.902069-142.865656-17.725793-10.063448 4.908138-19.456 11.158069-29.166344 16.737103 1.165241-9.110069 4.519724-16.066207 8.686344-22.59862 38.347034-60.204138 91.10069-104.41269 156.001104-132.449104 31.214345-13.523862 65.818483-19.350069 98.868965-28.70731h52.012138z"
          fill="#4E057E" p-id="3218"></path>
    <path d="M450.59531 994.551172c6.497103-4.731586 12.429241-10.593103 19.526621-13.982896 73.76331-35.310345 117.336276-92.513103 122.632828-174.786207 5.296552-82.308414-39.123862-159.073103-109.49738-191.064276-82.096552-37.287724-159.249655-28.954483-229.340689 29.801931-3.919448 3.283862-7.627034 6.708966-14.724414 8.756966 2.01269-5.720276 3.354483-11.864276 6.249931-17.125518 44.06731-79.589517 131.707586-117.124414 228.210759-97.950896 145.761103 28.954483 239.969103 170.97269 210.944 318.040276-3.248552 16.313379-7.556414 32.379586-11.758345 50.140689 53.601103 5.790897 106.425379 13.700414 134.532413 73.65738-33.615448 2.683586-63.805793 5.896828-94.102068 7.344551-45.550345 2.224552-91.10069 3.177931-136.651035 4.872828-6.17931 0.211862-12.393931 1.518345-18.573241 2.295172h-107.44938z"
          fill="#4E057E" p-id="3219"></path>
    <path d="M451.760552 796.142345c0-36.051862-29.272276-65.57131-64.723862-65.182897a65.677241 65.677241 0 0 0-64.617931 65.712552c0.247172 34.462897 29.801931 64.158897 64.300138 64.617931 35.380966 0.494345 65.006345-29.166345 65.041655-65.147586z m-64.158897-145.37269a145.054897 145.054897 0 0 1 145.690483 145.054897 145.584552 145.584552 0 0 1-145.266759 145.725793 145.37269 145.37269 0 0 1-146.432-146.184828 144.772414 144.772414 0 0 1 146.008276-144.595862z m143.395311-230.152827c33.862621-15.536552 68.502069-29.766621 101.340689-47.174621 27.895172-14.759724 53.918897-33.156414 80.578207-50.281931 10.416552-6.638345 14.265379-16.242759 14.406621-29.201655 0.282483-35.063172 7.697655-68.713931 25.882483-99.25738 4.307862-7.238621 9.851586-13.841655 15.607172-21.715862 25.63531 22.810483 36.864 51.553103 44.137931 81.814069 3.03669 12.888276 8.615724 18.996966 21.009655 23.340138 117.442207 41.736828 159.037793 145.972966 156.354207 238.415448-0.176552 5.720276-7.556414 14.441931-13.382621 16.384-50.670345 17.054897-101.058207 15.924966-149.715862-7.309241-47.845517-22.775172-94.24331-48.728276-142.900965-69.420138a380.045241 380.045241 0 0 0-144.701793-30.967172c-2.648276-0.070621-5.296552-0.635586-7.980138-0.918069l-0.635586-3.672276z m463.660137 244.700689c-49.716966-18.149517-95.867586-7.344552-141.735724 15.077517-34.003862 16.595862-70.550069 22.245517-107.661241 10.663725a37.005241 37.005241 0 0 1-19.138207-15.28938c-71.220966-120.832-173.409103-188.804414-316.769103-187.356689-3.177931 0.070621-6.355862-0.353103-9.569104-0.494345l-1.235862-4.943448c12.393931-3.990069 24.505379-9.25131 37.146483-11.828966 61.44-12.711724 121.608828-4.13131 181.353931 11.652414 47.951448 12.641103 91.842207 34.109793 133.049379 61.157517a318.711172 318.711172 0 0 0 152.152276 52.25931c6.885517 0.529655 13.700414 1.765517 20.585931 2.860138 32.80331 5.296552 58.615172 20.197517 71.821241 52.365242v13.876965z"
          fill="#4E057E" p-id="3220"></path>
</svg>